<?xml version="1.0" encoding="UTF-8" standalone="no"?>
<!-- Created with Inkscape (http://www.inkscape.org/) -->

<svg
   xmlns:dc="http://purl.org/dc/elements/1.1/"
   xmlns:cc="http://creativecommons.org/ns#"
   xmlns:rdf="http://www.w3.org/1999/02/22-rdf-syntax-ns#"
   xmlns:svg="http://www.w3.org/2000/svg"
   xmlns="http://www.w3.org/2000/svg"
   xmlns:sodipodi="http://sodipodi.sourceforge.net/DTD/sodipodi-0.dtd"
   xmlns:inkscape="http://www.inkscape.org/namespaces/inkscape"
   width="210mm"
   height="297mm"
   viewBox="0 0 210 297"
   version="1.1"
   id="svg8"
   inkscape:version="0.92.4 (5da689c313, 2019-01-14)"
   sodipodi:docname="drawing.svg">
  <defs
     id="defs2">
    <inkscape:path-effect
       effect="powerstroke"
       id="path-effect4704"
       is_visible="true"
       offset_points="0.2,0.96891135 | 5.1904677,-0.39015557 | 4.0080885,5.3196186"
       sort_points="true"
       interpolator_type="Linear"
       interpolator_beta="0.98"
       start_linecap_type="butt"
       linejoin_type="extrp_arc"
       miter_limit="4"
       end_linecap_type="butt" />
    <inkscape:path-effect
       effect="clone_original"
       id="path-effect4692"
       is_visible="true"
       linkedpath="" />
  </defs>
  <sodipodi:namedview
     id="base"
     pagecolor="#ffffff"
     bordercolor="#666666"
     borderopacity="1.0"
     inkscape:pageopacity="0.0"
     inkscape:pageshadow="2"
     inkscape:zoom="0.98994949"
     inkscape:cx="440.15103"
     inkscape:cy="616.56955"
     inkscape:document-units="mm"
     inkscape:current-layer="layer1"
     showgrid="false"
     inkscape:window-width="1920"
     inkscape:window-height="1020"
     inkscape:window-x="0"
     inkscape:window-y="36"
     inkscape:window-maximized="1" />
  <metadata
     id="metadata5">
    <rdf:RDF>
      <cc:Work
         rdf:about="">
        <dc:format>image/svg+xml</dc:format>
        <dc:type
           rdf:resource="http://purl.org/dc/dcmitype/StillImage" />
        <dc:title></dc:title>
      </cc:Work>
    </rdf:RDF>
  </metadata>
  <g
     inkscape:label="Layer 1"
     inkscape:groupmode="layer"
     id="layer1">
    <path
       style="opacity:0.98000004;fill:#f5f5ff;fill-rule:nonzero;stroke:#fffaff;stroke-width:1.9378227;stroke-linecap:butt;stroke-linejoin:miter;stroke-miterlimit:4;stroke-dasharray:none;stroke-opacity:1;fill-opacity:1"
       d="m 12.094835,181.1025 c -2.8123784,1.85067 -4.8362563,3.33872 -6.194067,4.51666 -0.6781066,0.58828 -1.2104336,1.11661 -1.5955534,1.5896 -0.077942,0.0957 -0.1508706,0.19042 -0.2184497,0.28408 -0.1067714,0.13584 -0.2040815,0.27265 -0.2890872,0.41027 -0.1390369,0.22509 -0.2592802,0.475 -0.3241186,0.7455 -0.066324,0.2767 -0.078476,0.5937 0.026289,0.91826 0.1063473,0.32947 0.3084395,0.5894 0.5455154,0.78137 0.2279516,0.18457 0.4837825,0.30384 0.7224036,0.38369 0.2413343,0.0808 0.4973751,0.13198 0.754057,0.16385 0.5108934,0.0634 1.0990374,0.0591 1.7298559,0.0101 0.6362144,-0.0495 1.3441179,-0.1469 2.1030556,-0.28225 1.5173138,-0.2706 3.2739258,-0.69927 5.1247578,-1.22613 1.85275,-0.5274 3.811622,-1.15658 5.73498,-1.83147 1.922729,-0.67468 3.817698,-1.39777 5.541111,-2.11382 1.716689,-0.71325 3.292731,-1.43177 4.561557,-2.09731 l -0.03917,0.0216 62.032282,-31.97143 45.55199,-22.98913 0.0224,-0.0113 0.18169,-0.105 44.68422,-25.82253 -0.14425,0.0846 c 0.92424,-0.5191 1.81982,-1.02762 2.68714,-1.52571 5.76571,-3.435696 10.2918,-6.420567 13.68292,-8.998684 1.94573,-1.47925 3.57292,-2.866052 4.86655,-4.168551 1.25718,-1.265795 2.37715,-2.627992 3.10719,-4.074881 0.37413,-0.741507 0.70684,-1.62446 0.84212,-2.613954 0.13978,-1.02239 0.0651,-2.150418 -0.37725,-3.262538 -0.44145,-1.109815 -1.15114,-1.957863 -1.91935,-2.572971 -0.74471,-0.596281 -1.54572,-0.977849 -2.26691,-1.232286 -1.4025,-0.494809 -2.98048,-0.672372 -4.48317,-0.720351 -1.55325,-0.04959 -3.30642,0.03346 -5.18824,0.210537 -3.76299,0.354097 -8.36162,1.115851 -13.5137,2.177765 -5.17183,1.065983 -10.99229,2.453498 -17.2323,4.087493 -12.48048,3.26811 -26.73481,7.547283 -41.01068,12.283703 -14.28009,4.737824 -28.610959,9.942828 -41.247051,15.068588 -12.626335,5.1218 -23.602576,10.1811 -31.149568,14.63202 -3.763613,2.21964 -6.739954,4.32548 -8.639166,6.25169 -0.946803,0.96027 -1.684342,1.93412 -2.088559,2.90676 -0.20497,0.49321 -0.332729,1.00658 -0.343509,1.52722 -0.01093,0.52787 0.09936,1.03653 0.337264,1.50556 0.235414,0.46413 0.577338,0.85392 0.986991,1.1808 0.407128,0.32487 0.891514,0.59616 1.434268,0.82629 1.077792,0.45701 2.482949,0.79194 4.199214,1.025 3.437866,0.46684 8.360507,0.55442 14.950195,0.21645 5.590346,-0.28672 11.165486,-0.81769 16.709452,-1.5914 -5.59303,0.17877 -11.169221,0.71006 -16.695377,1.59071 2.090691,-0.33318 5.143718,-0.76839 8.917514,-1.26834 1.972988,-0.26138 4.137726,-0.53974 6.453052,-0.82894 -0.8407,0.0666 7.520734,-0.59107 6.680034,-0.52445 9.783764,-0.75847 21.204046,-1.592 31.924676,-2.15364 10.7172,-0.56145 20.74811,-0.85201 27.74925,-0.52205 1.75131,0.0825 3.31707,0.20408 4.65908,0.37065 1.3396,0.16626 2.46778,0.37875 3.33911,0.64682 0.43595,0.13412 0.81652,0.28482 1.13072,0.45578 0.31201,0.16977 0.57658,0.36921 0.76068,0.60902 0.18982,0.24728 0.29106,0.53502 0.26871,0.85132 -0.0217,0.30723 -0.15695,0.60114 -0.36327,0.87819 -0.007,0.01 -0.015,0.02 -0.0226,0.0299 0,0 -0.0256,0.0237 -0.0256,0.0237 -1.18575,1.09508 -2.90984,2.44225 -4.99219,3.95546 -2.08471,1.51493 -4.53809,3.20314 -7.18751,4.98075 -5.29723,3.55414 -11.39283,7.47542 -16.90445,11.08998 -2.75728,1.80825 -5.36923,3.54025 -7.66594,5.11357 -2.2977,1.574 -4.275,2.98587 -5.76481,4.15421 -0.74508,0.58432 -1.36353,1.10407 -1.83736,1.54999 -0.23678,0.22283 -0.43474,0.4247 -0.59313,0.60479 -0.15951,0.18135 -0.27254,0.33349 -0.34473,0.45682 -0.0358,0.0611 -0.0588,0.11051 -0.0726,0.14886 -0.014,0.0387 -0.0162,0.0597 -0.0165,0.0659 -2.2e-4,0.005 0,-0.009 -0.007,-0.0258 -0.009,-0.0195 -0.0202,-0.0301 -0.0231,-0.0323 -0.001,-0.001 0.0117,0.009 0.0451,0.0195 0.0344,0.0112 0.0849,0.0224 0.15568,0.03 0.1431,0.0153 0.34295,0.0128 0.60974,-0.0159 0.86876,-0.11159 2.0236,-0.32379 3.3784,-0.61103 1.35326,-0.28691 2.89955,-0.64729 4.55706,-1.05462 3.31501,-0.81465 7.06865,-1.81554 10.60141,-2.7884 7.06455,-1.94544 13.23958,-3.77707 13.23819,-3.77666 l 0.0237,-0.006 41.54393,-9.52705 0.17442,0.76056 -41.532,9.52432 c -0.30183,0.0894 -6.34722,1.87892 -13.24111,3.77737 -3.5361,0.97377 -7.29744,1.97677 -10.62236,2.79386 -1.66245,0.40854 -3.21737,0.77099 -4.58143,1.06019 -1.36252,0.28888 -2.54109,0.50608 -3.44881,0.62258 -0.30472,0.0329 -0.56499,0.0402 -0.78389,0.0169 -0.1102,-0.0118 -0.21617,-0.0319 -0.31438,-0.0639 -0.0981,-0.0319 -0.19537,-0.0778 -0.28183,-0.14489 -0.0884,-0.0686 -0.16229,-0.15697 -0.21082,-0.26531 -0.0482,-0.10756 -0.0644,-0.21907 -0.06,-0.32541 0.004,-0.10456 0.0285,-0.2052 0.0621,-0.29849 0.0338,-0.0937 0.0796,-0.18678 0.13318,-0.27827 0.10649,-0.18193 0.25422,-0.37559 0.43223,-0.57798 0.17912,-0.20365 0.39542,-0.42348 0.64429,-0.6577 0.49749,-0.46818 1.13595,-1.00393 1.89061,-1.59575 1.50967,-1.18393 3.50314,-2.60687 5.80535,-4.18395 2.3032,-1.57777 4.92028,-3.31314 7.679,-5.12233 5.52037,-3.6203 11.60458,-7.53412 16.89762,-11.08545 2.64571,-1.77512 5.09007,-3.45724 7.16355,-4.96401 2.0592,-1.49639 3.74318,-2.8131 4.89372,-3.87186 0.1342,-0.18748 0.18276,-0.33244 0.1903,-0.43915 0.007,-0.10287 -0.0205,-0.20551 -0.10931,-0.32116 -0.0945,-0.12311 -0.25808,-0.25915 -0.51466,-0.39875 -0.25439,-0.13842 -0.58284,-0.27098 -0.98722,-0.39539 -0.80935,-0.249 -1.8871,-0.45459 -3.20577,-0.61826 -1.31624,-0.16337 -2.86105,-0.28363 -4.59969,-0.36557 -6.95869,-0.32796 -16.95756,-0.0395 -27.67168,0.52185 -10.71069,0.56111 -22.1232,1.39403 -31.905214,2.15237 -0.515978,0.04 -6.162724,0.48434 -6.678702,0.52434 -2.3316,0.0791 -4.513508,0.14736 -6.503054,0.19863 -3.796763,0.0978 -6.899758,0.13379 -8.995428,0.0636 l 0.01404,-6.9e-4 c -6.585144,0.13653 -11.389134,-0.15858 -14.640896,-0.79852 -1.62777,-0.32034 -2.819023,-0.71853 -3.62743,-1.15905 -0.401286,-0.21867 -0.686961,-0.4365 -0.879847,-0.64007 -0.191894,-0.20252 -0.279762,-0.37741 -0.315496,-0.51806 -0.03401,-0.13389 -0.02838,-0.26686 0.0055,-0.41299 0.03549,-0.15285 0.110218,-0.35113 0.254672,-0.59825 0.298966,-0.51143 0.846755,-1.1481 1.734017,-1.91365 1.768153,-1.52561 4.593165,-3.31445 8.36653,-5.3088 7.518653,-3.97386 18.462812,-8.58724 31.149327,-13.30062 12.672749,-4.70826 27.030024,-9.4965 41.330984,-13.81878 14.30328,-4.322978 28.52566,-8.172371 40.92157,-11.005418 6.19761,-1.416443 11.92028,-2.57458 16.95255,-3.40991 5.04588,-0.837587 9.33326,-1.339474 12.66285,-1.462713 1.66351,-0.06157 3.02728,-0.02587 4.07953,0.09262 1.05443,0.118735 1.69585,0.320366 1.80166,0.433138 0.0166,0.01772 -0.0557,0.06073 -0.34525,-0.14676 -0.27075,-0.194055 -0.62582,-0.563338 -0.86606,-1.131202 -0.24147,-0.570772 -0.26397,-1.095851 -0.23317,-1.451739 0.0291,-0.336118 0.0917,-0.462582 0.0361,-0.421298 -0.0958,0.07119 -0.58685,0.688153 -1.51852,1.50716 -0.95008,0.835186 -2.26718,1.858633 -4.0499,3.094455 -3.09761,2.147327 -7.37754,4.781619 -13.05465,7.963623 -0.83292,0.485302 -1.6955,0.982068 -2.58826,1.490452 l -0.10875,0.06193 -0.0355,0.02267 -43.47697,27.762076 -44.30006,24.90579 -60.958994,33.98865 -0.04296,0.024 0.0038,-0.002 c -1.080916,0.66832 -2.500318,1.41979 -4.120142,2.19401 -1.616249,0.7725 -3.414283,1.5593 -5.252175,2.30371 -1.837841,0.74439 -3.708876,1.44372 -5.472461,2.04307 -1.766632,0.60039 -3.409905,1.09518 -4.7993807,1.43624 -0.6946194,0.1705 -1.3137284,0.2996 -1.8473201,0.38524 -0.5420192,0.087 -0.955709,0.12266 -1.263163,0.12356 -0.1564621,4.5e-4 -0.2472006,-0.008 -0.3171306,-0.0133 -0.064096,-0.005 -0.065834,-0.005 -0.029876,0.0367 0.041683,0.0479 0.1081498,0.13053 0.1386685,0.25403 0.028932,0.11708 0.00515,0.19627 -0.0086,0.20016 -0.0152,0.004 -0.00838,-0.0639 0.039466,-0.17384 0.029119,-0.0669 0.072058,-0.14782 0.131366,-0.24229 0.043279,-0.06 0.092967,-0.12474 0.1496817,-0.1944 0.2881634,-0.35391 0.7301342,-0.80059 1.3627038,-1.34936 1.2635424,-1.09616 3.20653,-2.53037 5.989438,-4.36165 z"
       id="path27"
       inkscape:connector-curvature="0"
       sodipodi:nodetypes="cccccccccc"
       transform="translate(-4.9171259e-7,-5.0781207)"
       inkscape:path-effect="#path-effect4704"
       inkscape:original-d="m 12.62745,181.91189 c -22.3811447,14.7278 7.347165,5.14544 16.760617,-0.19476 L 90.880394,148.73886 135.90155,124.73801 179.99237,97.939175 C 292.31303,34.423925 -45.210261,140.56292 60.221638,136.76234 c 16.726486,-1.04855 96.937132,-8.8405 91.239772,-1.19008 -9.34755,8.63273 -53.310583,33.74131 -44.29288,32.77035 7.13751,-0.91606 31.84424,-8.24457 31.84424,-8.24457 l 41.54393,-9.52705" />
  </g>
</svg>
